<?xml version="1.0" encoding="UTF-8"?>
<svg id="Calque_2" data-name="Calque 2" xmlns="http://www.w3.org/2000/svg" xmlns:xlink="http://www.w3.org/1999/xlink" viewBox="0 0 1920 1080">
  <defs>
    <style>
      .cls-1 {
        fill: #a5a5e9;
      }

      .cls-1, .cls-2, .cls-3, .cls-4, .cls-5, .cls-6, .cls-7 {
        stroke-width: 0px;
      }

      .cls-2 {
        fill: #232369;
      }

      .cls-3 {
        fill: #29297a;
      }

      .cls-4 {
        fill: #4a4ad3;
      }

      .cls-5 {
        fill: none;
      }

      .cls-6 {
        fill: #3f3fb2;
      }

      .cls-8 {
        fill: url(#Dégradé_sans_nom_5);
        stroke: #000;
        stroke-miterlimit: 10;
      }

      .cls-9 {
        clip-path: url(#clippath);
      }

      .cls-7 {
        fill: #30308e;
      }
    </style>
    <clipPath id="clippath">
      <rect class="cls-5" width="1920" height="1080"/>
    </clipPath>
    <linearGradient id="Dégradé_sans_nom_5" data-name="Dégradé sans nom 5" x1="960" y1="1080" x2="960" y2="0" gradientUnits="userSpaceOnUse">
      <stop offset="0" stop-color="#36269f"/>
      <stop offset="1" stop-color="#2d2c7f"/>
    </linearGradient>
  </defs>
  <g id="Calque_2-2" data-name="Calque 2">
    <g class="cls-9">
      <rect class="cls-8" width="1920" height="1080"/>
      <g>
        <polygon class="cls-4" points="2551.8 1052.9 2491.8 1078.9 1617.8 1078.9 1617.44 1078.68 752.34 1078.68 752.05 1078.5 -77.5 1078.5 -126.5 1048.5 -78.5 1008.5 -10.46 950.39 -9.64 950.72 -15.02 984.35 -2.57 968.65 2.37 989.44 15.53 981.38 40.98 1011.5 51.03 987.77 114.74 1001.34 177.26 1026.78 394.51 935.01 372.32 953.5 389.18 953.5 383.77 958.77 410.5 955.2 410.5 987.63 425.49 961.02 516.14 998.9 477.5 968.5 463.1 962.53 532.8 990.62 616.59 944.48 632.58 940.62 615.18 953.11 653.58 939.61 691.98 972.02 656.5 922.5 770.13 992.63 819.38 950.57 820.2 950.9 814.81 984.53 827.26 968.83 832.21 989.62 845.36 981.56 870.82 1011.69 880.87 987.95 944.58 1001.52 1007.1 1026.96 1224.34 935.19 1202.15 953.68 1219.01 953.68 1213.61 958.95 1240.34 955.38 1240.34 987.81 1255.33 961.2 1345.98 999.08 1307.34 968.68 1293.23 962.84 1362.63 990.8 1446.42 944.66 1462.42 940.8 1445.02 953.29 1483.42 939.79 1521.81 972.2 1486.34 922.68 1620.67 1005.59 1684.84 950.8 1685.66 951.13 1680.28 984.76 1692.73 969.06 1697.67 989.85 1710.83 981.79 1736.28 1011.91 1746.33 988.17 1809.99 1001.73 1872.56 1027.19 2089.79 935.43 2067.61 953.9 2084.48 953.9 2079.07 959.17 2105.8 955.6 2105.8 988.04 2120.79 961.42 2211.44 999.3 2172.8 968.9 2158.84 963.12 2228.1 991.02 2311.89 944.88 2327.88 941.02 2310.48 953.51 2348.88 940.01 2387.28 972.42 2351.8 922.9 2491.8 1009.31 2551.8 1052.9"/>
        <polygon class="cls-6" points="-9.64 950.72 114.74 1001.34 51.03 987.77 40.98 1011.5 15.53 981.38 2.37 989.44 -2.57 968.65 -15.02 984.35 -9.64 950.72"/>
        <polygon class="cls-6" points="477.5 968.5 516.14 998.9 425.49 961.02 410.5 987.63 410.5 955.2 383.77 958.77 389.18 953.5 372.32 953.5 394.51 935.01 394.65 934.95 463.1 962.53 477.5 968.5"/>
        <polygon class="cls-6" points="691.98 972.02 653.58 939.61 615.18 953.11 632.58 940.62 616.59 944.48 656.5 922.5 691.98 972.02"/>
        <polygon class="cls-1" points="691.98 972.02 653.58 939.61 615.18 953.11 632.58 940.62 616.59 944.48 616.5 944.5 656.5 922.5 691.98 972.02"/>
        <polygon class="cls-1" points="516.14 998.9 425.49 961.02 410.5 987.63 410.5 955.2 383.77 958.77 389.18 953.5 372.32 953.5 394.51 935.01 395.23 934.41 463.1 962.53 477.5 968.5 516.14 998.9"/>
        <polygon class="cls-1" points="115.5 1001.5 114.74 1001.34 51.03 987.77 40.98 1011.5 15.53 981.38 2.37 989.44 -2.57 968.65 -15.02 984.35 -9.64 950.72 -9.56 950.2 115.5 1001.5"/>
      </g>
      <polygon class="cls-7" points="804.33 1033.06 783.18 1033.06 667.08 977.5 514.16 1041.15 489.21 1029.33 470.14 1036.79 348.65 991.18 164.56 1054.21 52.13 1054.21 3.5 1054.21 3.68 1078.67 808.06 1078.67 804.33 1033.06"/>
      <polygon class="cls-3" points="632.32 1053.55 601.64 1080.5 496.13 1080.5 647.24 1024.94 603.28 1058.94 632.32 1053.55"/>
      <polygon class="cls-3" points="330.64 1025.06 295.81 1060.72 336.03 1042.89 310.5 1079.5 220.52 1079.79 330.64 1025.06"/>
      <g>
        <polygon class="cls-6" points="820.2 950.9 944.58 1001.52 880.87 987.95 870.82 1011.69 845.36 981.56 832.21 989.62 827.26 968.83 814.81 984.53 820.2 950.9"/>
        <polygon class="cls-6" points="1307.34 968.68 1345.98 999.08 1255.33 961.2 1240.34 987.81 1240.34 955.38 1213.61 958.95 1219.01 953.68 1202.15 953.68 1224.34 935.19 1224.48 935.13 1293.23 962.84 1307.34 968.68"/>
        <polygon class="cls-6" points="1521.81 972.2 1483.42 939.79 1445.02 953.29 1462.42 940.8 1446.42 944.66 1486.34 922.68 1521.81 972.2"/>
        <polygon class="cls-1" points="1521.81 972.2 1483.42 939.79 1445.02 953.29 1462.42 940.8 1446.42 944.66 1446.34 944.68 1486.34 922.68 1521.81 972.2"/>
        <polygon class="cls-1" points="1345.98 999.08 1255.33 961.2 1240.34 987.81 1240.34 955.38 1213.61 958.95 1219.01 953.68 1202.15 953.68 1224.34 935.19 1225.06 934.59 1293.23 962.84 1307.34 968.68 1345.98 999.08"/>
        <polygon class="cls-1" points="945.34 1001.68 944.58 1001.52 880.87 987.95 870.82 1011.69 845.36 981.56 832.21 989.62 827.26 968.83 814.81 984.53 820.2 950.9 820.28 950.38 945.34 1001.68"/>
      </g>
      <polygon class="cls-7" points="1654.5 1052.5 1613.01 1034.24 1496.92 978.68 1344 1042.33 1319.05 1030.51 1299.97 1037.97 1178.49 992.37 994.39 1055.39 881.97 1055.39 833.34 1055.39 833.52 1079.85 1637.89 1079.85 1654.5 1052.5"/>
      <polygon class="cls-3" points="1463.15 1052.73 1432.47 1079.68 1326.97 1079.68 1478.08 1024.12 1434.11 1058.12 1463.15 1052.73"/>
      <polygon class="cls-3" points="1159.48 1028.24 1124.65 1063.9 1164.86 1046.07 1144.76 1079.85 1054.5 1080.5 1159.48 1028.24"/>
      <g>
        <polygon class="cls-1" points="1685.66 951.13 1809.99 1001.73 1746.33 988.17 1736.28 1011.91 1710.83 981.79 1697.67 989.85 1692.73 969.06 1680.28 984.76 1685.66 951.13"/>
        <polygon class="cls-1" points="1810.8 1001.9 1809.99 1001.73 1746.33 988.17 1736.28 1011.91 1710.83 981.79 1697.67 989.85 1692.73 969.06 1680.28 984.76 1685.66 951.13 1685.74 950.6 1810.8 1001.9"/>
      </g>
      <polygon class="cls-7" points="2499.63 1034.46 2478.47 1034.46 2362.38 978.9 2209.46 1042.55 2184.51 1030.73 2165.44 1038.2 2043.95 992.59 1859.86 1055.61 1747.43 1055.61 1698.8 1055.61 1698.98 1080.07 2503.36 1080.07 2499.63 1034.46"/>
      <polygon class="cls-7" points="774.5 1041.5 833.34 1002.08 941.5 1054.5 973.5 1042.5 1008.5 1060.5 1011.04 1078.67 745.5 1078.67 774.5 1041.5"/>
      <polygon class="cls-7" points="1632.5 1048.5 1699.81 1002.91 1807.97 1055.33 1839.97 1043.33 1874.97 1061.33 1877.51 1079.5 1611.97 1079.5 1632.5 1048.5"/>
      <polygon class="cls-7" points="-37.17 1047.5 30.14 1001.91 138.3 1054.33 170.3 1042.33 205.3 1060.33 207.84 1078.5 -57.7 1078.5 -37.17 1047.5"/>
      <path class="cls-2" d="m1946.49,1083.07l-201.58-1.9-142.74,2.36s27.03-6.78,45.98-7.88l1.97-4.47,2.88,1.63-2.23-2.59,1.32-3.2h.96s-.64-.96-.64-.96l1.33-4.48,1.86,6.44-1.61.95,2.24.35,1.56,4.51-3.22.62,9.69-1.51,2.25-3.83,2.56.35-2.1-1.79,2.86-8.8,1.55.02-1.22-1.3,2.66-8.64,3.11,9.98-2.91,2.53,3.85.04,2.5,6.77-4.2,2.53,5.47-.99,2.25-.21.99-2.23,2.24.02-1.59-1.3.66-1.92,1.6.02-1.26-1.62,1.66-5.12,1.88,4.52-1.3.95,1.6.34,1.25,3.86-1.57.95,2.88-.13,4.58-11.99,7.07-1.53-6.72-1.99,3.65-11.2,4.89.05-3.89-3.25,7.61-22.72,5.6,17.71-2.93,4.78,3.55-2.21,4.01,15.77,1.55,5.79-8.38,3.77-.33.95,8.04-2.16.98-1.27,2.56.67-2.23-1.95,2.34-9.29,1.92.67-1.27-2.27,2.65-8,3.44,9.35-2.75,2.54,3.36.03,2.17,7.08-5.15,1.88,4.12-.34v-.1s22.91-1.77,22.91-1.77l1.18-3.4,2.92-.16-2.59-1.41,1.47-4.18,2.36.36-1.79-1.65,3.2-8.07,1.33,7.04-1.08.63,1.57.32,1.86,7.2-2.73,2.55,3.48-1.2.65,3.99,5,.44-3.37-1.71,1.71-3.65,1.86-.18-1.81-1.12,3.46-8.07,2.14,6.69-1.62,1,1.58.05,2.1,7.73,1.57.32,2.33-5.73,1.37,6.13,1.56.58,1.48-4.17,7.14,1.84-6.52-4.46,4.47-14.11,3.4.91-2.53-3,4.64-11.46,4.19,15.74-3.11,2,3.56.13,2.09,8-7.17,1.06,7.88,1.34,2.35,8.28-1.36,1,5.29-.07-1.27-1.37,1.72-3.68.44.32-.41-1.08,1.45-3.64.94,3.2-1.21,1.54,1.45-.74.69,2.94-1.73.73,1.97.07.95,2.94c17.39,1.42,130.73,17.38,130.73,17.38Z"/>
      <path class="cls-2" d="m1773.98,1087.95l-201.58-1.9-142.74,2.36s27.03-6.78,45.98-7.88l1.97-4.47,2.88,1.63-2.23-2.59,1.32-3.2h.96s-.64-.96-.64-.96l1.33-4.48,1.86,6.44-1.61.95,2.24.35,1.56,4.51-3.22.62,9.69-1.51,2.25-3.83,2.56.35-2.1-1.79,2.86-8.8,1.55.02-1.22-1.3,2.66-8.64,3.11,9.98-2.91,2.53,3.85.04,2.5,6.77-4.2,2.53,5.47-.99,2.25-.21.99-2.23,2.24.02-1.59-1.3.66-1.92,1.6.02-1.26-1.62,1.66-5.12,1.88,4.52-1.3.95,1.6.34,1.25,3.86-1.57.95,2.88-.13,4.58-11.99,7.07-1.53-6.72-1.99,3.65-11.2,4.89.05-3.89-3.25,7.61-22.72,5.6,17.71-2.93,4.78,3.55-2.21,4.01,15.77,1.55,5.79-8.38,3.77-.33.95,8.04-2.16.98-1.27,2.56.67-2.23-1.95,2.34-9.29,1.92.67-1.27-2.27,2.65-8,3.44,9.35-2.75,2.54,3.36.03,2.17,7.08-5.15,1.88,4.12-.34v-.1s22.91-1.77,22.91-1.77l1.18-3.4,2.92-.16-2.59-1.41,1.47-4.18,2.36.36-1.79-1.65,3.2-8.07,1.33,7.04-1.08.63,1.57.32,1.86,7.2-2.73,2.55,3.48-1.2.65,3.99,5,.44-3.37-1.71,1.71-3.65,1.86-.18-1.81-1.12,3.46-8.07,2.14,6.69-1.62,1,1.58.05,2.1,7.73,1.57.32,2.33-5.73,1.37,6.13,1.56.58,1.48-4.17,7.14,1.84-6.52-4.46,4.47-14.11,3.4.91-2.53-3,4.64-11.46,4.19,15.74-3.11,2,3.56.13,2.09,8-7.17,1.06,7.88,1.34,2.35,8.28-1.36,1,5.29-.07-1.27-1.37,1.72-3.68.44.32-.41-1.08,1.45-3.64.94,3.2-1.21,1.54,1.45-.74.69,2.94-1.73.73,1.97.07.95,2.94c17.39,1.42,130.73,17.38,130.73,17.38Z"/>
      <path class="cls-2" d="m1220.98,1082.95l-201.58-1.9-142.74,2.36s27.03-6.78,45.98-7.88l1.97-4.47,2.88,1.63-2.23-2.59,1.32-3.2h.96s-.64-.96-.64-.96l1.33-4.48,1.86,6.44-1.61.95,2.24.35,1.56,4.51-3.22.62,9.69-1.51,2.25-3.83,2.56.35-2.1-1.79,2.86-8.8,1.55.02-1.22-1.3,2.66-8.64,3.11,9.98-2.91,2.53,3.85.04,2.5,6.77-4.2,2.53,5.47-.99,2.25-.21.99-2.23,2.24.02-1.59-1.3.66-1.92,1.6.02-1.26-1.62,1.66-5.12,1.88,4.52-1.3.95,1.6.34,1.25,3.86-1.57.95,2.88-.13,4.58-11.99,7.07-1.53-6.72-1.99,3.65-11.2,4.89.05-3.89-3.25,7.61-22.72,5.6,17.71-2.93,4.78,3.55-2.21,4.01,15.77,1.55,5.79-8.38,3.77-.33.95,8.04-2.16.98-1.27,2.56.67-2.23-1.95,2.34-9.29,1.92.67-1.27-2.27,2.65-8,3.44,9.35-2.75,2.54,3.36.03,2.17,7.08-5.15,1.88,4.12-.34v-.1s22.91-1.77,22.91-1.77l1.18-3.4,2.92-.16-2.59-1.41,1.47-4.18,2.36.36-1.79-1.65,3.2-8.07,1.33,7.04-1.08.63,1.57.32,1.86,7.2-2.73,2.55,3.48-1.2.65,3.99,5,.44-3.37-1.71,1.71-3.65,1.86-.18-1.81-1.12,3.46-8.07,2.14,6.69-1.62,1,1.58.05,2.1,7.73,1.57.32,2.33-5.73,1.37,6.13,1.56.58,1.48-4.17,7.14,1.84-6.52-4.46,4.47-14.11,3.4.91-2.53-3,4.64-11.46,4.19,15.74-3.11,2,3.56.13,2.09,8-7.17,1.06,7.88,1.34,2.35,8.28-1.36,1,5.29-.07-1.27-1.37,1.72-3.68.44.32-.41-1.08,1.45-3.64.94,3.2-1.21,1.54,1.45-.74.69,2.94-1.73.73,1.97.07.95,2.94c17.39,1.42,130.73,17.38,130.73,17.38Z"/>
      <path class="cls-2" d="m-29.57,1085.69l201.58-1.9,142.74,2.36s-27.03-6.78-45.98-7.88l-1.97-4.47-2.88,1.63,2.23-2.59-1.32-3.2h-.96s.64-.96.64-.96l-1.33-4.48-1.86,6.44,1.61.95-2.24.35-1.56,4.51,3.22.62-9.69-1.51-2.25-3.83-2.56.35,2.1-1.79-2.86-8.8-1.55.02,1.22-1.3-2.66-8.64-3.11,9.98,2.91,2.53-3.85.04-2.5,6.77,4.2,2.53-5.47-.99-2.25-.21-.99-2.23-2.24.02,1.59-1.3-.66-1.92-1.6.02,1.26-1.62-1.66-5.12-1.88,4.52,1.3.95-1.6.34-1.25,3.86,1.57.95-2.88-.13-4.58-11.99-7.07-1.53,6.72-1.99-3.65-11.2-4.89.05,3.89-3.25-7.61-22.72-5.6,17.71,2.93,4.78-3.55-2.21-4.01,15.77-1.55,5.79,8.38,3.77.33.95-8.04-2.16-.98-1.27-2.56.67,2.23-1.95-2.34-9.29-1.92.67,1.27-2.27-2.65-8-3.44,9.35,2.75,2.54-3.36.03-2.17,7.08,5.15,1.88-4.12-.34v-.1s-22.91-1.77-22.91-1.77l-1.18-3.4-2.92-.16,2.59-1.41-1.47-4.18-2.36.36,1.79-1.65-3.2-8.07-1.33,7.04,1.08.63-1.57.32-1.86,7.2,2.73,2.55-3.48-1.2-.65,3.99-5,.44,3.37-1.71-1.71-3.65-1.86-.18,1.81-1.12-3.46-8.07-2.14,6.69,1.62,1-1.58.05-2.1,7.73-1.57.32-2.33-5.73-1.37,6.13-1.56.58-1.48-4.17-7.14,1.84,6.52-4.46-4.47-14.11-3.4.91,2.53-3-4.64-11.46-4.19,15.74,3.11,2-3.56.13-2.09,8,7.17,1.06-7.88,1.34-2.35,8.28,1.36,1-5.29-.07,1.27-1.37-1.72-3.68-.44.32.41-1.08-1.45-3.64-.94,3.2,1.21,1.54-1.45-.74-.69,2.94,1.73.73-1.97.07-.95,2.94c-17.39,1.42-130.73,17.38-130.73,17.38Z"/>
      <path class="cls-2" d="m142.94,1090.57l201.58-1.9,142.74,2.36s-27.03-6.78-45.98-7.88l-1.97-4.47-2.88,1.63,2.23-2.59-1.32-3.2h-.96s.64-.96.64-.96l-1.33-4.48-1.86,6.44,1.61.95-2.24.35-1.56,4.51,3.22.62-9.69-1.51-2.25-3.83-2.56.35,2.1-1.79-2.86-8.8-1.55.02,1.22-1.3-2.66-8.64-3.11,9.98,2.91,2.53-3.85.04-2.5,6.77,4.2,2.53-5.47-.99-2.25-.21-.99-2.23-2.24.02,1.59-1.3-.66-1.92-1.6.02,1.26-1.62-1.66-5.12-1.88,4.52,1.3.95-1.6.34-1.25,3.86,1.57.95-2.88-.13-4.58-11.99-7.07-1.53,6.72-1.99-3.65-11.2-4.89.05,3.89-3.25-7.61-22.72-5.6,17.71,2.93,4.78-3.55-2.21-4.01,15.77-1.55,5.79,8.38,3.77.33.95-8.04-2.16-.98-1.27-2.56.67,2.23-1.95-2.34-9.29-1.92.67,1.27-2.27-2.65-8-3.44,9.35,2.75,2.54-3.36.03-2.17,7.08,5.15,1.88-4.12-.34v-.1s-22.91-1.77-22.91-1.77l-1.18-3.4-2.92-.16,2.59-1.41-1.47-4.18-2.36.36,1.79-1.65-3.2-8.07-1.33,7.04,1.08.63-1.57.32-1.86,7.2,2.73,2.55-3.48-1.2-.65,3.99-5,.44,3.37-1.71-1.71-3.65-1.86-.18,1.81-1.12-3.46-8.07-2.14,6.69,1.62,1-1.58.05-2.1,7.73-1.57.32-2.33-5.73-1.37,6.13-1.56.58-1.48-4.17-7.14,1.84,6.52-4.46-4.47-14.11-3.4.91,2.53-3-4.64-11.46-4.19,15.74,3.11,2-3.56.13-2.09,8,7.17,1.06-7.88,1.34-2.35,8.28,1.36,1-5.29-.07,1.27-1.37-1.72-3.68-.44.32.41-1.08-1.45-3.64-.94,3.2,1.21,1.54-1.45-.74-.69,2.94,1.73.73-1.97.07-.95,2.94c-17.39,1.42-130.73,17.38-130.73,17.38Z"/>
    </g>
  </g>
</svg>