<?xml version="1.0" encoding="UTF-8"?>
<svg id="c" data-name="Calque 3" xmlns="http://www.w3.org/2000/svg" xmlns:xlink="http://www.w3.org/1999/xlink" viewBox="0 0 1920 1080">
  <defs>
    <style>
      .h {
        fill: #1d784d;
      }

      .h, .i, .j, .k, .l, .m, .n, .o, .p {
        stroke-width: 0px;
      }

      .i {
        fill: #16555c;
      }

      .j {
        fill: url(#g);
      }

      .k {
        fill: none;
      }

      .q {
        clip-path: url(#f);
      }

      .l {
        fill: #289055;
      }

      .m {
        fill: url(#d);
      }

      .n {
        fill: #044a31;
      }

      .o {
        fill: #35aa75;
      }

      .p {
        fill: #195f45;
      }
    </style>
    <linearGradient id="d" data-name="Dégradé sans nom 17" x1="950.42" y1="-101.69" x2="968.09" y2="1081.78" gradientUnits="userSpaceOnUse">
      <stop offset="0" stop-color="#bbdbb6"/>
      <stop offset=".85" stop-color="#bbdbb6"/>
      <stop offset="1" stop-color="#bbdbb6"/>
    </linearGradient>
    <clipPath id="f">
      <rect class="k" y="-2" width="1920" height="1084"/>
    </clipPath>
    <linearGradient id="g" data-name="Dégradé sans nom 17" x1="527.69" y1="932.45" x2="1352.31" y2="932.45" xlink:href="#d"/>
  </defs>
  <rect class="m" width="1920" height="1080"/>
  <g id="e" data-name="Calque 4">
    <g class="q">
      <g>
        <path class="o" d="m639.69,131c.26,69.74-9.08,63.51-5.96,97.77.62,6.79,1.4,20.18,2.22,37.66.11,2.4,1.46,4.59,3.58,5.73.07.04.13.07.2.11,3.09,1.64,6.22,3.17,9.39,4.62,2.18,1,4.64-.74,4.45-3.13-3.79-49.03-5.83-82.36-5.83-82.36,0,0,20.31-46.96-39.68-226.7-59.98-179.74-13.27,14.91-13.27,14.91,0,0,44.64,81.67,44.9,151.4Z"/>
        <path class="o" d="m1474.72-26.51l-17.98,95.01-8.42-5.08s-30.41-56.21-51.59-65.9c-21.17-9.68-122.71,106.24-113.7,134.4l27.29,4.67s55.66-58.56,68.28-63.86l-14.5,46.52,63.65-8.76,7.94-24.36,59.91,60.9s-73.07,45.67-71.76,74.37l61.32,6.53s43.06-43.06,66.55-43.06l-21.27,43.06,66.94,6.52s113.52,7.83,137-6.52l-49.58,84.81s-100.47-13.05-126.57,67.85l37.84,23.48s31.32-44.36,36.54-44.36l-13.05,26.1,37.21,18.26,9.76-14.35,11.75,3.92-8.87,43.06-23.76-15.66-57.31,15.66s-14.45,40.44,36.44,93.94c0,0-91.79-.83-116.36,67.44l35.46,12.16s22.18-33.93,49.58-35.23l-17.75,35.23s16.08,5.43,51.29,4.76c7.79-.15,18.4-.32,26-2,24.48-5.42,26.18-10.84,27-11,1.46,3.75-18.18,14.96-31,18-4.45,1.05-13.64,2.91-18,4-51.06,12.74-116.86,32.66-136.7,54.09-17.55,18.95-55.12,10.34-86.08-1.67-29.67-11.51-51.6-37.11-58.75-68.12-17.51-75.92-50.9-222.74-50.9-238.15,0-17.88-4.91-52.07-7.91-66.41-.47-2.27-2.43-3.92-4.74-4.01-6.83-.25-13.72-.77-20.56-.73-1.75,0-2.84,1.91-1.98,3.44,4.17,7.42,12.39,24.35,14.32,45.54,2.61,28.7,50.89,289.67,45.67,310.54-2.61,10.44-8.49,36.54-25.45,57.09h0c-11.59,14.01-31.91,17.15-47.07,7.12-19.23-12.73-41.4-33.69-56.31-67.42-12.57-28.45-28.43-52.56-42.97-71.26-2.05-2.65-4.08-5.19-6.07-7.62-8.58-8.33-23.61-20.37-34.63-36.41-.01,0-.01-.01-.01-.01-4.4-6.4-8.16-13.42-10.62-21.1-10.44-32.62-31.31-324.9-20.87-362.74,10.43-37.84,26.79-182.67,26.79-182.67l-20.92,8.86c1.6-.08,4.69,4.46-8.24,55.65-15.89,62.87-37.09,99.77-41,135-3.92,35.23,13.32,213.06,3.04,277-6.18,38.46-6.46,147.64-32,192-17.47,30.34-79.67,103.17-116,109-68.14,10.95-120.02-56.03-163.28-81.95-13.77-8.25-24.18-21.21-28.55-36.65-.03-.1-.06-.2-.08-.29-20.27-71.96-35.92-236.9-44.38-343.33-.2-2.48-1.73-4.65-4.01-5.64-3.11-1.35-6.18-2.77-9.2-4.28-2.31-1.15-5.01.57-4.9,3.15,3.14,73.65,6.35,195.37,3.06,232.22-2.72,30.34-24.35,119.67-40.62,184.03-10.21,40.36-18.3,70.9-18.3,70.9l-15.51-52.73-39-132.59s-32.7-210.23-32.7-253.83-18.35-396.41-18.35-396.41l-29.92,39.79s32.97,69.84,27.38,283.3c-5.58,213.47,14.66,418.76-27.38,523.23,0,0,7.78-177.39-15.58-233.45-23.36-56.06-42.04-71.64-45.16-79.42-3.11-7.79,62.29-439.15,48.28-490.54-14.02-51.39-17.13,4.67-17.13,4.67,0,0,1.56,180.64-17.13,261.62-18.69,80.98-41.03,118.31-41.03,118.31,0,0-15.03-38.89,6.77-152.57,21.8-113.68,28.03-297.44,28.03-297.44l-152.47,22.5s20.1,237.57,12.32,296.74c-7.79,59.18-7.79,107.45-3.12,147.94,4.67,40.49,29.59,261.62,1.56,316.13-28.03,54.5-74.75-38.93-74.75-38.93,0,0,7.79-87.21,14.01-127.7,6.23-40.49,28.04-185.31,10.91-284.98-17.13-99.66-32.71-298.99-32.71-298.99l-46.71,1.55s52.94,161.96,48.27,300.56c-4.67,138.59-62.29,188.42-63.85,348.82-1.55,160.4-45.16,31.15-45.16,31.15,0,0,79.42-258.51,80.98-325.47,1.56-66.96-37.26-331.94-39.65-335.71-2.36-3.7-56.38-14.26-58.4-14.65,1.75.63,39.13,15.68,49.77,151.03,10.91,138.6,23.36,163.51,15.58,177.53-7.79,14.01-57.62,80.35-65.41,144.51-7.78,64.16-126.14,243.25-126.14,243.25l-9.34,137.04,1400-2.4,198-6c267.9,35.22,488,131,488,131l16.96-976-536.28,23.49Z"/>
        <path class="o" d="m1262.04,260.55c-1.59,11.91-1.66,23.32-1.47,30.43.05,1.77,1.5,3.17,3.27,3.14,3.23-.05,6.46.03,9.69.15,3.73.14,7.45.3,11.17.42,1.92.06,3.47-1.57,3.32-3.49-.38-4.87-.9-13.93-5.55-41.61-7.38-43.86-36.48-147.4-36.28-181.1.15-26.66-8.81-64.91-12.55-79.71-.65-2.58-3.96-3.31-5.64-1.25l-4.02,4.91c-.6.74-.85,1.7-.68,2.64,1.11,5.98,5.36,29.34,8.74,54.09,3.91,28.7,32.62,191.8,30.01,211.38Z"/>
      </g>
      <path class="n" d="m1577.73-118.17s-58.46,110.05-65.34,165.08c-6.88,55.03-48.15,237.3-92.86,302.64-44.71,65.34-175.39,230.42-319.84,199.47-144.44-30.95-234.2-150.93-271.86-331.68-37.66-180.75-140.83-373.34-140.83-373.34,0,0,103.17,251.05,116.93,316.4,13.76,65.34,30.95,216.66,120.37,309.52,89.42,92.86,137.56,103.26,208.07,99.78,70.5-3.48,166.8-44.75,245.9-147.92,79.1-103.17,114.6-214.64,114.6-214.64,0,0,16.08-118.95,47.03-198.05,30.95-79.1,68.78-147.88,68.78-147.88l-30.95,20.63Z"/>
      <path class="h" d="m1236-117s48,114,56,160,2.62,99.86,20.31,134.93,89.69,141.07,173.69,148.07,119.48-3.08,172.24-110.54,95.76-318.46,96.76-349.46,41-43,30,9-90.7,335.77-141.35,405.88-122.48,74.21-157.07,66.16-97.62-36.79-139.1-97.42-48.13-61.57-51.81-87.1-21.67-200.53-79.67-282.53,20,3,20,3Z"/>
      <path class="j" d="m886.97,792.19c104.03-8.19,872.68-74.39,169.03,62.81-65.41,12.75,183.43,38.81,275.78,47.84,15.94,1.56,25.31,18.67,18.03,32.93l-75.35,147.66c-4.92,9.64-15.95,14.47-26.37,11.55l-703.81-197.27c-23.23-6.51-21.64-39.96,2.11-44.23,0,0,254.33-54.5,340.58-61.29Z"/>
      <path class="l" d="m1563,1248s-267-217.2-503-253.6-574.93-69.22-408-134.4c95.08-37.13,165.62-28,174-58s-255.77-242-476.38-262c-220.62-20-515.59,44.1-580.1,96.05-64.51,51.95-19.16,472.8-19.16,472.8l380.65,278.15,1432-139Z"/>
      <path class="l" d="m951,889c117.49,88.12,1084.37,56.32,1084.37,56.32,0,0,154.12-328.89-258.37-308.32-361,18-898,198-826,252Z"/>
      <path class="p" d="m1815.85,923.77l59.46-77.88s-88.14-5.66-153.06-29.84c-64.92-24.19-99.98-35.73-99.98-35.73l32.71-50.44-48.97,49.12-50-5,29-34-39,29,49.24-64.41-71.13,61.35s-48.05-8.77-32.63-25.64c15.42-16.87,71.69-58.75,121.06-69.28,49.37-10.53,197.79,23.02,330.58,97.94,0,0-119.9-104.83-178.45-130.38l67.67-14.43-179.81-45.87s93.2-47.04,151.47-54.03c58.27-6.99,146.93,39.3,146.93,39.3,0,0-96.33-158.75-149.58-166.41,0,0,115.82-30.13,177.21,2.96,61.39,33.09,224.69,212.88,224.69,212.88l-166.4,315.29-221-4.49Z"/>
      <path class="p" d="m571.69,1179.52s-126.18-112.46-164.58-134.41l-10.97-38.4-30.17-30.17-27.43,27.43h-21.94v-66.1s-54.86-27.16-68.58-24.42c-13.72,2.74,96.01-63.09,131.67-71.32,35.66-8.23,150.87-35.66,167.33-46.63,16.46-10.97,32.92-21.94,32.92-21.94,0,0-235.9-19.2-307.22,24.69-71.32,43.89-2.74-38.4,49.37-54.86,52.12-16.46,123.44-13.72,123.44-13.72,0,0-40.23-44.03-113.38-35.73l-26.51-38.33h-40.16l4.5,60.35s-22.91-32.08-27.91-32.5c-1.95-.16-24.73,29.4-42.85,55.36-12.33,17.66-22.5,33.65-22.5,37.49v54.54l-19.2-32.6,10.97-30.17-24.69-38.4h43.89l134.41-233.16s-120.69,49.37-153.61,87.78c-32.92,38.4-60.35,134.41-60.35,134.41,0,0-10.97-5.49-8.23-19.2s52.12-63.09,60.35-76.81c8.23-13.72-13.72-54.86-13.72-54.86l27.43,5.49s32.92-43.89,38.4-46.63-27.43-16.46-27.43-16.46l43.89-10.97s63.09-90.52,85.03-96.01c21.94-5.49-60.35-5.49-115.21,35.66-54.86,41.15-96.01,112.46-96.01,112.46,0,0,8.23-145.38,57.6-202.98l-230.42-49.37-452.6,537.64-52.12,721.42s1075.27,5.49,1187.74-175.55c112.46-181.04-41.15-202.98-41.15-202.98Z"/>
      <g>
        <path class="k" d="m560.63,142.69l-15.94,7.97c8.92-1.49,14.97-2.49,14.97-2.49,0,0-.24,1.68-.44,4.37l1.41-9.85Z"/>
        <path class="n" d="m515.18,155.58c10.66-1.78,21.3-3.55,29.51-4.92l15.94-7.97-1.41,9.85c-.68,9.32-.81,31.44,11.56,43.81,6.56,6.56,184.46,116.89,225.22,141.65v-4.42c0-7.41-3.71-7.41-22.24-77.84-18.53-70.43-63.01-96.37-70.43-103.79-7.41-7.41-122.32-70.43-122.32-70.43l-114.91-40.77c1-.23,1.93-.55,2.87-.85-16.84-4.37-42.1-10.36-53.88-10.36-18.53,0-126.03,44.48-126.03,44.48L207.52,3.6l-.06-.15C168.44-27.22,69.29-91.71-45.41-63.03-193.68-25.96-186.26,51.88-186.26,51.88L-108.42,14.81-19.46,7.4l-14.83,44.48,44.48,11.12c-4.76.5-23.72,3.49-28.19,4l197.06,36.68c-2.2,0-86.6,34.55-110.06,45.32l-12.48,12.22,22.24,140.85-44.48-70.43-22.24,51.89-3.71,155.68c-25.95,3.71-213.13,133.76-213.13,133.76v355.63l31.02-80.8c-1.59-53.39-.12-134.21,18.05-195.54C-126.07,552.19-3.75,485.47,14.78,481.76c10.82-2.16,49.39-10.63,79.65-17.32,29.55-20.95,51.06-40.05,51.06-40.05l33.36-3.71,66.63-52.6c-26.72,4.92-127.4,22.24-137.49,6.18-11.65-18.53-45.88-203.87-45.88-203.87,0,0,52.61,148.27,93.54,155.68,12.02,2.18,25.29,6.6,38.04,11.75v-6.1l85.25-7.41c15.84-9.51,50.09-62.74,59.08-76.32l-37.81-144.32s55.6,107.49,59.31,118.61c3.06,9.16,18.69,129.07,24.1,170.98l2.81,8.88,40.77-22.24-29.65,70.43,3.71,163.09,18.53,37.07,51.86-170.84c4.78-52.51,1.68-124.68-34.3-190.65-62.19-114.01-121.13-182.91-128.86-191.75l-.88-1s.31.35.88,1l149.58,169.98c-.77-1.5-1.22-2.24-1.22-2.24,0,0,54.63,38.83,63.01,81.55,20.61,104.98,13.86,157.45,13.86,157.45,0,0,7.41,0,22.24-7.41,37.07-18.53,34.33-38.83,30.62-49.95-3.71-11.12-1.96-94.52-1.96-94.52l42.73-12.97,11.12-44.48-74.13-7.41,39.8-20.47c-3.71-11.12-76.87-83.31-87.99-90.73-11.12-7.41-55.6-7.41-55.6-7.41l19.45-11.64-124.21-34.78s137.15,37.07,159.39,33.36Z"/>
        <path class="h" d="m516.15,164.93l28.54-14.27c-8.21,1.37-22.03,1.56-32.69,3.34-22.24,3.71-159-33-159-33l2.28,1.14c1.15.57,2.34,1.05,3.56,1.44l116.16,36.42,4.08-2.48,37.07,7.41Z"/>
        <path class="h" d="m559.22,152.54l-6.01,42.04c14.83,7.41,239.08,157.53,239.08,157.53l3.71-11.12v-5.12c-40.77-24.76-217.44-134.31-224-140.87-12.37-12.37-13.46-33.14-12.78-42.46Z"/>
        <path class="h" d="m298,98s29.75,115.82,40.23,152.18c10.39,36.06,45.37,143.09,45.37,143.09-5.41-41.91-18.54-161.11-21.6-170.28-3.71-11.12-64-125-64-125Z"/>
        <path class="i" d="m308.48,97.27c-.56-.64-.88-1-.88-1l.88,1Z"/>
        <path class="h" d="m430,288c35.98,65.97,46.42,139.16,41.64,191.66l11.15-36.74c3.25-113.86-20.25-167.14-25.79-177.93l-152-172c4,8,62.81,80.99,125,195Z"/>
        <path class="h" d="m-3.62,64.53c-127.8,14.83-139.54,37.29-178.93,87.43-40.77,51.89-22.24,147.38-22.24,147.38l22.24-39.89,66.72-37.07,29.65-59.31,24.09,35.21,92.67-33.36-18.53-44.48,55.6,29.65-6.71,6.71c23.45-10.76,121.87-53.81,124.07-53.81L-3.62,64.53Z"/>
        <path class="h" d="m287,78s109.47-44,128-44c11.78,0,34.16,2.63,51,7,44.51-14.13,29.76-104.03,29.76-104.03l-292.83-25.95,22.24,107.49,61.83,59.48Z"/>
        <path class="h" d="m-155.73,652.27c-18.17,61.34-19.64,142.16-18.05,195.54l67.21-175.07S30.58,505.94,71.35,479.99c8.06-5.13,15.8-10.39,23.08-15.55-30.26,6.68-68.83,15.15-79.65,17.32-18.53,3.71-140.85,70.43-170.51,170.51Z"/>
        <path class="h" d="m249.15,365.18l-6.15,4.82c-24,8-119,22-136,5-18.11-18.11-46.48-209.14-47-212,.81,2.28,59,147,96,160,11.53,4.05,25.25,8.85,38,14,23.52,9.5,44.93,22.32,53.79,27.4.49.28.95.54,1.36.78Z"/>
      </g>
      <g>
        <path class="k" d="m1593.75,74.03l15.94,7.97c-8.92-1.49-14.97-2.49-14.97-2.49,0,0,.24,1.68.44,4.37l-1.41-9.85Z"/>
        <path class="n" d="m1639.2,86.91c-10.66-1.78-21.3-3.55-29.51-4.92l-15.94-7.97,1.41,9.85c.68,9.32.81,31.44-11.56,43.81-6.56,6.56-184.46,114.76-225.22,139.52v-2.29c0-7.41,3.71-7.41,22.24-77.84,18.53-70.43,63.01-96.37,70.43-103.79,7.41-7.41,122.32-70.43,122.32-70.43l114.91-40.77c-1-.23-1.93-.55-2.87-.85,16.84-4.37,42.1-10.36,53.88-10.36,18.53,0,126.03,44.48,126.03,44.48l81.55-70.43.06-.15c39.03-30.67,138.18-95.15,252.88-66.48,148.27,37.07,140.85,114.91,140.85,114.91l-77.84-37.07-88.96-7.41,14.83,44.48-44.48,11.12c4.76.5,9.34,1.01,13.81,1.53l-182.68,39.16c2.2,0,94.67,42.37,118.13,53.13l4.41,4.41-22.24,140.85,44.48-70.43,22.24,51.89,3.71,155.68c25.95,3.71,213.13,133.76,213.13,133.76v355.63s-31.02-80.8-31.02-80.8c1.59-53.39.12-134.21-18.05-195.54-29.65-100.08-151.97-166.8-170.51-170.51-10.82-2.16-49.39-10.63-79.65-17.32-29.55-20.95-51.06-40.05-51.06-40.05l-33.36-3.71-66.63-52.6c26.72,4.92,127.4,22.24,137.49,6.18,11.65-18.53,45.88-203.87,45.88-203.87,0,0-52.61,148.27-93.54,155.68-12.02,2.18-25.29,6.6-38.04,11.75v-6.1s-85.25-7.41-85.25-7.41c-15.84-9.51-50.47-61.08-59.46-74.65l38.19-145.98s-55.6,107.49-59.31,118.61c-3.06,9.16-18.69,129.07-24.1,170.98l-2.81,8.88-40.77-22.24,29.65,70.43-3.71,163.09-18.53,37.07-51.86-170.84c-4.78-52.51-1.68-124.68,34.3-190.65,62.19-114.01,121.13-182.91,128.86-191.75l.88-1s-.31.35-.88,1l-149.58,169.98c.77-1.5,1.22-2.24,1.22-2.24,0,0-54.63,38.83-63.01,81.55-20.61,104.98-13.86,157.45-13.86,157.45,0,0-7.41,0-22.24-7.41-37.07-18.53-34.33-38.83-30.62-49.95,3.71-11.12,1.96-94.52,1.96-94.52l-42.73-12.97-11.12-44.48,74.13-7.41-39.8-20.47c3.71-11.12,76.87-83.31,87.99-90.73,11.12-7.41,55.6-7.41,55.6-7.41l-17.27-10.36,122.03-36.05s-137.15,37.07-159.39,33.36Z"/>
        <path class="h" d="m1638.23,96.27l-28.54-14.27c8.21,1.37,25.55,3.01,36.31,2,25.89-2.43,123.9-26.05,155-33,3.67-.82,2.42.43.25,1.88-2.89,1.94-6.1,3.35-9.44,4.29l-115.25,32.43-1.26-.76-37.07,7.41Z"/>
        <path class="h" d="m1595.16,83.88l6.01,42.04c-14.83,7.41-239.08,157.53-239.08,157.53l-3.71-11.12v-5.12c40.77-24.76,214.06-135.65,220.62-142.21,12.37-12.37,16.84-31.8,16.16-41.12Z"/>
        <path class="h" d="m1855,32s1-1,0,3c-9.44,37.78-35,152-35,152-1.53-2.31-3.85-5.48-3.85-5.48l-45.37,143.09c5.41-41.91,18.17-161.45,21.22-170.61,3.71-11.12,63-122,63-122Z"/>
        <path class="i" d="m1845.9,28.61c.56-.64.88-1,.88-1l-.88,1Z"/>
        <path class="h" d="m1717.04,220.35c-35.98,65.97-39.08,138.14-34.3,190.65l-11.15-36.74c-3.25-113.86,20.87-169.48,26.41-180.27,0,0,105.3-125.3,144-164,6-6,8.29-4.72,7-3-7.72,8.84-69.77,79.34-131.96,193.35Z"/>
        <path class="h" d="m1867,10s-109.19-49.11-127.72-49.11c-11.78,0-37.04,5.99-53.88,10.36-44.51-14.13-26.78-102.94-26.78-102.94l292.83-25.95-22.24,107.49-62.2,60.15Z"/>
        <path class="h" d="m2092.27,101.77c-.52,2.86-34.31,185.44-45.87,203.84-10.1,16.06-110.78-1.27-137.49-6.19l-3.68-2.9c.41-.24.87-.5,1.36-.79,8.86-5.07,30.6-17.06,54.12-26.56,12.75-5.15,26.02-9.57,38.04-11.75,40.6-7.35,92.71-153.37,93.52-155.65Z"/>
      </g>
      <g>
        <g>
          <path class="k" d="m430.86,877.84l2.05,8.14,7.17,3.24,30.3-28.09c-3.02-9.74-4.7-15.81-4.7-15.81l-34.82,32.52Z"/>
          <polygon class="n" points="102.35 871.54 -14.92 949.37 -68 1072.94 31.07 1183.49 206.09 1179 278.71 845.32 102.35 871.54"/>
          <path class="n" d="m540.55,998.15c-30.52-17.85-59.2-101.66-70.17-137.02l-30.38,27.87-10-4,74.82,286.33,320.8-8.23,4.81-64.53c-82.93-26.17-260.25-83.09-289.88-100.42Z"/>
          <path class="n" d="m1531.29,1027.41c14.15,0,176.92-3.25,222.92-22.76,46-19.51,31.85-94.3,31.85-94.3l70.52,30.89v16.92l74.58,30.31-.03-289.47h-173.33l-205.8,153s-2.33.62-5,0l-8.63,35.59-81.38,35.77-197.81,228.6,97.43-2.5,100.38-79.78s60.15-42.27,74.31-42.27Z"/>
          <polygon class="h" points="307.07 829.06 112.46 864.83 102.35 871.54 278.71 845.32 206.09 1179 504.82 1171.33 440 889 307.07 829.06"/>
          <path class="h" d="m1552,852l-13.63,35.59-81.39,35.77-197.81,228.61-218.19,5.6-150.13-29.36-37.18,34.16-28.05.72,4.81-64.53c-82.93-26.17-260.24-83.08-289.88-100.41-30.52-17.85-59.21-101.66-70.17-137.02l6.53-6.05,141.53,16.26,214.25,196.88,17.05,15.67,2.23,2.05,187.54-71.53s88.46-107.31,106.15-110.56c17.69-3.25,77.84,13.01,120.3-3.25s148.61-65.03,184-65.03c30.09,0,86.82,12.91,102.04,16.43Z"/>
          <path class="h" d="m1931.16,988.47l-74.58-30.31v-16.92l-70.52-30.89s14.15,74.79-31.85,94.3c-46,19.51-208.76,22.76-222.92,22.76s-74.31,42.27-74.31,42.27l-100.38,79.78,574.57-14.75-.02-146.24Z"/>
        </g>
        <path class="o" d="m1248.67,1162.37l208.32-239.01,81.38-35.77s92,19.51,127.38,13.01c35.38-6.5,120.3,9.75,120.3,9.75,0,0,26.26,74.98-42.46,100.8-62.04,23.31-212.3,16.26-212.3,16.26,0,0-47.29,12.59-170.93,122.05-124.45,110.18-111.7,12.91-111.7,12.91Z"/>
      </g>
    </g>
  </g>
</svg>