<?xml version="1.0" encoding="UTF-8"?>
<svg id="Calque_2" data-name="Calque 2" xmlns="http://www.w3.org/2000/svg" xmlns:xlink="http://www.w3.org/1999/xlink" viewBox="0 0 527.84 617.87">
  <defs>
    <style>
      .cls-1 {
        fill: #e30613;
        font-family: Quicksand-Regular, Quicksand;
        font-size: 72px;
      }

      .cls-2 {
        letter-spacing: -.02em;
      }

      .cls-3 {
        fill: none;
      }

      .cls-3, .cls-4, .cls-5 {
        stroke-width: 0px;
      }

      .cls-4 {
        fill: url(#Dégradé_sans_nom_7-2);
      }

      .cls-5 {
        fill: #fff;
      }

      .cls-6 {
        fill: url(#Dégradé_sans_nom_7);
        stroke: #fff;
        stroke-miterlimit: 10;
        stroke-width: 15px;
      }
    </style>
    <linearGradient id="Dégradé_sans_nom_7" data-name="Dégradé sans nom 7" x1="294.47" y1="440.74" x2="263.84" y2="111.38" gradientUnits="userSpaceOnUse">
      <stop offset="0" stop-color="#2e2c7e"/>
      <stop offset="1" stop-color="#e30b17"/>
    </linearGradient>
    <linearGradient id="Dégradé_sans_nom_7-2" data-name="Dégradé sans nom 7" x1="249.79" y1="533.32" x2="265.11" y2="56.9" xlink:href="#Dégradé_sans_nom_7"/>
  </defs>
  <g id="Calque_1-2" data-name="Calque 1">
    <path class="cls-6" d="m40.53,111.09c1.69,17.46,2.92,32.32,4.6,47.13,7.18,63.28,23.7,124.38,56.09,181.56,34.74,61.34,83.55,111.08,153.58,143.14,6.72,3.08,11.87,3.02,18.6-.03,57.45-26.03,100.86-65.12,134.17-113.09,55.64-80.12,74.58-169.11,79.32-261.39.29-5.59-3.2-6.35-7.65-7.67-69.18-20.53-138.35-41.08-207.43-61.86-5.75-1.73-10.61-1.53-16.22.15-68.03,20.36-136.06,40.7-204.28,60.56-8.92,2.6-12.33,6.29-10.78,11.49Z"/>
    <path class="cls-4" d="m527.55,112.24c-3.72,61.41-13.52,121.82-35.79,180.29-31.91,83.76-83.86,154.81-168.38,205-15.59,9.25-32.28,16.73-49.45,23.47-7.52,2.95-14.1,2.22-21.37-.54-50.68-19.26-92.56-48.82-128.04-85.58-58.37-60.47-90.79-131.63-108.54-208.57C5.24,179.8.7,132.71,0,85.27c-.09-6.32,1.92-8.98,8.84-11.02C90.14,50.33,171.33,26.13,252.47,1.77c7.81-2.34,14.63-2.39,22.56,0,80.76,24.34,161.62,48.43,242.58,72.26,7.62,2.24,10.85,5.09,10.14,12.4-.82,8.55-.19,17.2-.19,25.81Zm-487.02-1.76c1.69,17.46,2.92,32.32,4.6,47.13,7.18,63.28,23.7,124.38,56.09,181.56,34.74,61.34,83.55,111.08,153.58,143.14,6.72,3.08,11.87,3.02,18.6-.03,57.45-26.03,100.86-65.12,134.17-113.09,55.64-80.12,74.58-169.11,79.32-261.39.29-5.59-3.2-6.35-7.65-7.67-69.18-20.53-138.35-41.08-207.43-61.86-5.75-1.73-10.61-1.53-16.22.15-68.03,20.36-136.06,40.7-204.28,60.56-8.92,2.6-12.33,6.29-10.78,11.49Z"/>
    <g>
      <g>
        <path class="cls-5" d="m289.02,381.85c.36-.94.7-1.85,1.01-2.75-.33.93-.66,1.84-1.01,2.75Z"/>
        <path class="cls-5" d="m290.34,378.25c.28-.83.55-1.65.8-2.45-.26.82-.52,1.64-.8,2.45Z"/>
        <path class="cls-5" d="m355.98,301.85c-1.69-1.96-2.93-4.57-.65-7.29.7-.83.86-1.96.65-3.19-.88-5.24-5.46-9.22-9.09-7.15-2.98,1.7-5.58.98-8.31-.36-2.22-1.08-4.24-1.05-6.33.3-2.19,1.43-4.57,1.74-6.92.36-1.73-1.02-3.28-.84-4.84.27-2.59,1.83-5.29,1.9-8.06.4-2.49-1.35-4.8-1.15-7.14.51-3.18,2.25-6.35,4.34-10.36,3.53-2.12-.44-4.31.74-6.19,2.24-2.12,1.69-4.42,2.9-6.86,3.44-5.65,1.26-11.31,2.63-17.03,3.3-14.58,1.71-56.11,35.7-89.32,11.34-16-11.73-9.2-23.81-15.6-33.56-2.99-4.55-9.22-5.9-15-7.53-9-2.55-18.28-4.73-24.63-10.69-1.12-1.05-2.22-2.88-4.55-1.91-2.23.91-1.68,2.85-1.66,4.37.15,8.76,4.87,15.6,11.19,21.77,3.34,3.26,6.64,6.54,9.98,9.81.98.96,1.96,1.91,2.94,2.87,2.54,2.46,13.08,5.81,14.1,11.42.85,4.72,3.32,18.52,5.49,26.3.81,2.91,1.9,5.8,3.27,8.61,19.76,40.55,68.29,46.79,79.05,45.73,8.03-.79,15.99-2.17,23.65-5.37,2.05-.85,3.23.27,3.17,2.91-.15,6.81,3.57,13.26,1.48,19.53.19,3.51,1.39,4.3,3.31,3.48,2.7-1.15,4.73-3.54,6.67-6.09,4.22-5.56,7.66-11.83,10.37-18.68.09-.22.18-.45.26-.67.35-.91.69-1.82,1.01-2.75.1-.29.2-.57.3-.85.28-.81.54-1.63.8-2.45,4.65-15.06,2.78-23.51,2.78-23.51,0,0,2.85,6.18,1.99,14.28,1.43-1.56,3.14-2.83,5.2-3.92,11.92-6.28,21.88-16.89,32.32-26.34,5.68-5.15,10.32-12.24,16.56-16.38,3.25-2.16,5.54-4.95,7.01-9.07,1.13-3.17,1.5-6.12-1.01-9.01Zm-56.66,30.31c-1.79,0-3.24-1.45-3.24-3.24s1.45-3.24,3.24-3.24,3.24,1.45,3.24,3.24-1.45,3.24-3.24,3.24Z"/>
        <path class="cls-5" d="m290.04,379.1c.1-.28.2-.57.3-.85-.1.28-.2.57-.3.85Z"/>
        <path class="cls-5" d="m288.76,382.52c.09-.22.17-.44.26-.67-.09.22-.17.44-.26.67Z"/>
      </g>
      <g>
        <path class="cls-3" d="m174.71,183.65c-.19-.83-.35-1.64-.48-2.42-.01.01-.02.02-.03.03.02.14.04.29.07.43.13.65.27,1.31.44,1.96Z"/>
        <path class="cls-5" d="m409.09,205.54c-.26-.83-.36-1.7-.71-2.49-.72-3.7-4.31-4.53-6.82-1.99-1.02,1.04-2.29,1.82-3.45,2.71l-.16.1c-15.99,11.21-17.59,15.48-19.71,26.54-.55,2.88-.35,5.84-.15,8.73.37,5.63-1.17,10.32-5.72,13.77-.23.18-.5.33-.77.45-4.53,1.92-8.6.38-12.93-1.47-7.05-3.03-12.58-7.68-15.74-14.43-.69-1.49-1.4-2.98-2.07-4.49,1.2-9.67-.08-22.05-4.61-36.63-14.3-45.96-32.68-50.04-49.54-51.91-11.59-1.3-32.83,3.19-44.97,6.13-1.44-1.24-3.39-2.33-6.03-2.94-.93-.21-1.95-.37-3.06-.45-.92-.07-1.9-.09-2.96-.05-11.09.41-62.35-2.82-55.49,34.14.01-.01.02-.02.03-.03.13.78.29,1.59.48,2.42-.17-.65-.31-1.31-.44-1.96-.03-.14-.05-.29-.07-.43-22.98,18.9-41.8,45.14-41.87,72.44,0,0-1.49,5.28,9.59,6.92,11.08,1.65,19.17,7.94,19.17,8.84,0,0,4.94-4.35,11.23-4.2,6.29.15,26.8-3.14,27.85-4.34,1.04-1.2,11.82-4.19,10.18,3.15-1.65,7.33-8.63,22.38-32.91,32.53,0,0-4.94,10.04,11.06,14.64,16,4.59,37.26,1.24,55.66-11.41,7.78-5.35,15.51-7.31,19.28-8,1.39-.25,2.41-1.43,2.47-2.84.36-8.69,2.5-37.37,15.17-42.58,4.75-.59,12.59.47,25.21,6.78l.42.21c7.85,8.49,24.09,21.12,53.61,22.87.24.02.48,0,.71-.02,2.11-.28,4.23-.55,6.34-.84,6.35-.87,11.16-4.5,15.79-8.5,6.76-5.84,8.71-13.72,9.2-22.08.26-4.53-.21-9.1-.33-13.66-.05-1.88.1-3.73.49-5.58,1.14-5.42,4.93-6.73,9.75-5.86,1.3.24,2.56.58,3.89.47,2.64-.23,3.87-1.53,4.34-4.12.65-3.67-.33-7.13-1.41-10.54Zm-106.52,7.06c-3.28,0-5.94-2.66-5.94-5.94s2.66-5.94,5.94-5.94,5.94,2.66,5.94,5.94-2.66,5.94-5.94,5.94Z"/>
      </g>
    </g>
    <path class="cls-5" d="m431.31,179.53c-1.32-.71-4.87-2.77-3.95-3.86.75-.89.27-2.47-.13-3.42-.14-.32.16-.65.49-.56.37.1.67-.32.45-.64-4.97-7.38.56-.81-22.5-13.57-23.37-12.94-36.95-9.92-37.59-9.77-.02,0-.03,0-.05,0-.77.07-16.47,1.33-14.77-11.2,2.47-18.15-5.04-17.06-8.02-17.47-2.98-.41-9.25,2.77-10.17,2.77s-4.62-.31-5.34.62c-.63.81.71.6,1.05.53.05,0,.11-.01.16,0,5.87,1,7.66,3.29,7.9,3.64.02.03.03.06.05.09.2.59,1.36,2.99,2.86,5.09,1.54,2.16,1.44,5.04,2.57,14.29,1.13,9.25,7.81,8.84,16.85,20.35,8.51,10.82,17.1,10.74,18.1,10.69.07,0,.13.01.19.04l3.76,1.76c.09.04.17.12.21.21l4.85,11.4c.11.27-.07.57-.37.58-3.02.09-16.39.48-18.3.39-2.16-.1-5.96,3.8-5.55,7.81.41,4.01,1.13,3.08,2.36-.51,1.16-3.4,4.89-4.41,5.31-4.51.03,0,.05,0,.08-.01l16.36-.82c.28-.01.49.24.43.51-.46,2.04-2.11,9.51-3.21,15.79l2.57-1.93c1.58-6.27,3.45-12.73,3.87-14.17.05-.18.21-.3.4-.3h7.28c.19,0,.36-.13.41-.31,1.16-4.97-6.2-12.52-7.8-14.09-.17-.16-.17-.43,0-.6,1.21-1.15,5.81-5.09,10.49-2.88,5.45,2.57,3.7.62,13.05,1.34,9.35.72,11.61,4.21,13.26,4.42,1.1.14,2.01-.55,2.5-1.02.2-.2.16-.53-.09-.67Zm-87.09-53.93c-1.29,0-2.33-1.04-2.33-2.33s1.04-2.33,2.33-2.33,2.33,1.04,2.33,2.33-1.04,2.33-2.33,2.33Zm52.51,63.53c.1.89-2.02,1.69-4.48,1.74-.17,0-.32-.1-.39-.25l-4.3-9.66c-.14-.32.14-.66.48-.58l1.58.39c.08.02.15.06.2.12.78.84,6.81,7.37,6.91,8.24Z"/>
    <text class="cls-1" transform="translate(117.87 602.32)"><tspan x="0" y="0">A</tspan><tspan class="cls-2" x="46.58" y="0">R</tspan><tspan x="93.74" y="0">TÉMIS</tspan></text>
  </g>
</svg>